{"title":"Rugby.Union-LV=Cup.Highlights-2013.03.10.pdtv.x264","uid":8243480,"size":511916098,"categoryP":"video","categoryS":"tv_shows","magnet":"?xt=urn:btih:aeb0445c0583d75b79357ae1fdd3a241bbc0aa0a&amp;dn=Rugby.Union-LV%3DCup.Highlights-2013.03.10.pdtv.x264&amp;tr=udp%3A%2F%2Ftracker.openbittorrent.com%3A80&amp;tr=udp%3A%2F%2Fopen.demonii.com%3A1337&amp;tr=udp%3A%2F%2Ftracker.coppersurfer.tk%3A6969&amp;tr=udp%3A%2F%2Fexodus.desync.com%3A6969","seeders":1,"leechers":0,"uploader":"rugbybill","files":4,"time":1363009193,"description":"SPORT: Rugby Highlights - LV= Cup\nOn: itv  \nDate: Sunday 10th March 2013 \nTime: 23:15 to 00:10 \n\nMartin Bayfield presents the best of the action from the semi-finals as Harlequins take on Bath and Sale play Saracens for a place in the finals. \n\nGeneral\nComplete name                            : 2013.03.10.LV.Cup.Highights.pdtv.x264.mp4\nFormat                                   : MPEG-4\nFormat profile                           : Base Media\nCodec ID                                 : isom\nFile size                                : 488 MiB\nDuration                                 : 45mn 36s\nOverall bit rate mode                    : Variable\nOverall bit rate                         : 1 496 Kbps\n\nVideo\nID                                       : 1\nFormat                                   : AVC\nFormat/Info                              : Advanced Video Codec\nFormat profile                           : &lt;a class=&quot;__cf_email__&quot; href=&quot;/cdn-cgi/l/email-protection&quot; data-cfemail=&quot;1058797778505c233e21&quot;&gt;[email&amp;#160;protected]&lt;/a&gt;&lt;script cf-hash='f9e31' type=&quot;text/javascript&quot;&gt;\n/* &lt;![CDATA[ */!function(){try{var t=&quot;currentScript&quot;in document?document.currentScript:function(){for(var t=document.getElementsByTagName(&quot;script&quot;),e=t.length;e--;)if(t[e].getAttribute(&quot;cf-hash&quot;))return t[e]}();if(t&amp;&amp;t.previousSibling){var e,r,n,i,c=t.previousSibling,a=c.getAttribute(&quot;data-cfemail&quot;);if(a){for(e=&quot;&quot;,r=parseInt(a.substr(0,2),16),n=2;a.length-n;n+=2)i=parseInt(a.substr(n,2),16)^r,e+=String.fromCharCode(i);e=document.createTextNode(e),c.parentNode.replaceChild(e,c)}}}catch(u){}}();/* ]]&gt; */&lt;/script&gt;\nFormat settings, CABAC                   : Yes\nFormat settings, ReFrames                : 5 frames\nCodec ID                                 : avc1\nCodec ID/Info                            : Advanced Video Coding\nDuration                                 : 45mn 36s\nBit rate                                 : 1 363 Kbps\nMaximum bit rate                         : 4 075 Kbps\nWidth                                    : 720 pixels\nHeight                                   : 416 pixels\nDisplay aspect ratio                     : 1.731\nFrame rate mode                          : Constant\nFrame rate                               : 25.000 fps\nColor space                              : YUV\nChroma subsampling                       : 4:2:0\nBit depth                                : 8 bits\nScan type                                : Progressive\nBits/(Pixel*Frame)                       : 0.182\nStream size                              : 445 MiB (91%)\nWriting library                          : x264 core 130 r2273 b3065e6\n\nAudio\nID                                       : 2\nFormat                                   : AAC\nFormat/Info                              : Advanced Audio Codec\nFormat profile                           : LC\nCodec ID                                 : 40\nDuration                                 : 45mn 36s\nBit rate mode                            : Variable\nBit rate                                 : 128 Kbps\nMaximum bit rate                         : 140 Kbps\nChannel(s)                               : 2 channels\nChannel positions                        : Front: L R\nSampling rate                            : 48.0 KHz\nCompression mode                         : Lossy\nDelay relative to video                  : 80ms\nStream size                              : 41.8 MiB (9%)\nLanguage                                 : English\n\n","torrent":{"xt":"urn:btih:aeb0445c0583d75b79357ae1fdd3a241bbc0aa0a","amp;dn":"Rugby.Union-LV%3DCup.Highlights-2013.03.10.pdtv.x264","amp;tr":["udp%3A%2F%2Ftracker.openbittorrent.com%3A80","udp%3A%2F%2Fopen.demonii.com%3A1337","udp%3A%2F%2Ftracker.coppersurfer.tk%3A6969","udp%3A%2F%2Fexodus.desync.com%3A6969"],"infoHash":"aeb0445c0583d75b79357ae1fdd3a241bbc0aa0a","infoHashBuffer":{"type":"Buffer","data":[174,176,68,92,5,131,215,91,121,53,122,225,253,211,162,65,187,192,170,10]},"announce":[],"urlList":[]}}